<?xml version="1.0" encoding="UTF-8" standalone="no"?>
<svg
   xmlns:dc="http://purl.org/dc/elements/1.1/"
   xmlns:cc="http://creativecommons.org/ns#"
   xmlns:rdf="http://www.w3.org/1999/02/22-rdf-syntax-ns#"
   xmlns:svg="http://www.w3.org/2000/svg"
   xmlns="http://www.w3.org/2000/svg"
   xmlns:sodipodi="http://sodipodi.sourceforge.net/DTD/sodipodi-0.dtd"
   xmlns:inkscape="http://www.inkscape.org/namespaces/inkscape"
   version="1.1"
   id="Layer_1"
   x="0px"
   y="0px"
   viewBox="0 0 635.8 204"
   style="enable-background:new 0 0 635.8 204;"
   xml:space="preserve"
   sodipodi:docname="old_prodexa.svg"
   inkscape:version="1.0.2 (e86c870879, 2021-01-15)"><metadata
   id="metadata295"><rdf:RDF><cc:Work
       rdf:about=""><dc:format>image/svg+xml</dc:format><dc:type
         rdf:resource="http://purl.org/dc/dcmitype/StillImage" /><dc:title></dc:title></cc:Work></rdf:RDF></metadata><defs
   id="defs293" /><sodipodi:namedview
   pagecolor="#ffffff"
   bordercolor="#666666"
   borderopacity="1"
   objecttolerance="10"
   gridtolerance="10"
   guidetolerance="10"
   inkscape:pageopacity="0"
   inkscape:pageshadow="2"
   inkscape:window-width="1920"
   inkscape:window-height="1080"
   id="namedview291"
   showgrid="false"
   inkscape:zoom="2.1767852"
   inkscape:cx="317.89999"
   inkscape:cy="102"
   inkscape:window-x="0"
   inkscape:window-y="0"
   inkscape:window-maximized="1"
   inkscape:current-layer="g284" />
<style
   type="text/css"
   id="style268">
	.st0{fill:#434C52;}
	.st1{fill:#E61B41;}
</style>
<g
   id="g284">
	<path
   class="st0"
   d="M101.8,104.4c0,7-0.9,13.4-2.7,19.3c-1.8,5.8-4.4,10.9-7.8,15.1c-3.4,4.2-7.6,7.5-12.7,9.8   c-5.1,2.3-10.8,3.5-17.3,3.5c-4.3,0-8.3-0.5-11.9-1.6s-6.6-2.2-8.9-3.5v40.1H19.3V61.5c4.3-1.2,9.6-2.3,15.9-3.3   c6.3-1,13-1.6,20-1.6c7.2,0,13.7,1.1,19.4,3.3s10.6,5.4,14.6,9.6s7.1,9.2,9.3,15.1C100.7,90.5,101.8,97.1,101.8,104.4z M80.1,104.8   c0-9.5-2.1-16.8-6.4-22.1s-11.1-7.9-20.6-7.9c-2,0-4.1,0.1-6.2,0.3c-2.2,0.2-4.3,0.6-6.4,1.1v52.4c1.9,1.3,4.3,2.5,7.5,3.6   c3.1,1.1,6.4,1.7,9.9,1.7c7.7,0,13.3-2.6,16.9-7.9C78.3,120.7,80.1,113.7,80.1,104.8z"
   id="path270"
   style="fill:#2d353b;fill-opacity:1" />
	<path
   class="st0"
   d="M168.9,77.7c-1.8-0.6-4.2-1.2-7.3-1.8c-3.1-0.6-6.7-1-10.8-1c-2.3,0-4.8,0.2-7.4,0.7c-2.6,0.5-4.5,0.9-5.5,1.2   v73.4h-21.2V62.9c4.1-1.5,9.2-3,15.3-4.3s12.9-2,20.4-2c1.4,0,3,0.1,4.9,0.3c1.9,0.2,3.7,0.4,5.6,0.7c1.9,0.3,3.7,0.6,5.4,1   s3.1,0.8,4.2,1.1L168.9,77.7z"
   id="path272"
   style="fill:#2d353b;fill-opacity:1" />
	<path
   class="st0"
   d="M263.1,104.3c0,7.2-1,13.8-3.1,19.8c-2.1,5.9-5.1,11-8.9,15.2c-3.9,4.2-8.5,7.5-13.9,9.8   c-5.4,2.3-11.4,3.5-17.9,3.5c-6.5,0-12.5-1.2-17.9-3.5c-5.4-2.3-10-5.6-13.8-9.8c-3.9-4.2-6.9-9.3-9-15.2s-3.2-12.6-3.2-19.8   s1.1-13.8,3.2-19.7s5.2-10.9,9.1-15.2c3.9-4.2,8.6-7.4,13.9-9.7c5.4-2.3,11.3-3.4,17.7-3.4s12.4,1.1,17.8,3.4   c5.4,2.3,10.1,5.5,13.9,9.7c3.9,4.2,6.9,9.3,9,15.2C262,90.5,263.1,97,263.1,104.3z M241.4,104.3c0-9.1-1.9-16.3-5.9-21.6   c-3.9-5.3-9.4-8-16.4-8c-7,0-12.5,2.7-16.4,8c-3.9,5.3-5.9,12.5-5.9,21.6c0,9.2,1.9,16.5,5.9,21.9c3.9,5.4,9.4,8.1,16.4,8.1   c7,0,12.5-2.7,16.4-8.1C239.4,120.8,241.4,113.5,241.4,104.3z"
   id="path274"
   style="fill:#2d353b;fill-opacity:1" />
	<path
   class="st0"
   d="M355.4,147.4c-4.2,1.3-9.5,2.4-15.9,3.5c-6.4,1.1-13,1.6-20,1.6c-7.2,0-13.7-1.1-19.4-3.3s-10.6-5.4-14.6-9.6   c-4-4.1-7.1-9.2-9.3-15.1c-2.2-5.9-3.2-12.5-3.2-19.9c0-7.2,0.9-13.8,2.7-19.7c1.8-5.9,4.5-10.9,8-15.2c3.5-4.2,7.8-7.4,12.8-9.7   c5-2.3,10.8-3.4,17.3-3.4c4.4,0,8.4,0.5,11.7,1.6c3.4,1,6.3,2.2,8.8,3.5v-44l21.2-3.5V147.4z M294.6,104.1c0,9.3,2.2,16.7,6.7,22   c4.4,5.3,10.6,8,18.4,8c3.4,0,6.3-0.1,8.7-0.4c2.4-0.3,4.4-0.6,5.9-1V80.1c-1.9-1.3-4.4-2.5-7.4-3.6c-3.1-1.1-6.4-1.7-9.9-1.7   c-7.7,0-13.3,2.6-16.9,7.9C296.4,88,294.6,95.1,294.6,104.1z"
   id="path276"
   style="fill:#2d353b;fill-opacity:1" />
	<path
   class="st0"
   d="M370.3,104.8c0-8.1,1.2-15.1,3.6-21.2c2.4-6.1,5.6-11.1,9.5-15.2c4-4,8.5-7.1,13.7-9.1   c5.1-2,10.4-3.1,15.8-3.1c12.6,0,22.4,3.9,29.5,11.7c7.1,7.8,10.6,19.5,10.6,35c0,1.2,0,2.5-0.1,3.9s-0.1,2.8-0.3,3.9h-60.4   c0.6,7.4,3.2,13.1,7.8,17.1c4.6,4,11.3,6,20,6c5.1,0,9.8-0.5,14.1-1.4c4.3-0.9,7.6-1.9,10.1-3L447,147c-1.2,0.6-2.8,1.2-4.8,1.8   c-2,0.6-4.4,1.2-7,1.8s-5.5,1-8.5,1.3c-3,0.4-6.1,0.5-9.3,0.5c-8.1,0-15.1-1.2-21-3.6c-6-2.4-10.9-5.7-14.7-10s-6.7-9.3-8.6-15.1   C371.2,118,370.3,111.7,370.3,104.8z M431.8,95.3c0-2.9-0.4-5.7-1.2-8.3c-0.8-2.6-2-4.9-3.6-6.8s-3.5-3.4-5.8-4.6s-5-1.7-8.1-1.7   c-3.3,0-6.1,0.6-8.6,1.8c-2.5,1.2-4.5,2.8-6.2,4.8s-3,4.3-3.9,6.8s-1.6,5.2-1.9,7.9L431.8,95.3L431.8,95.3z"
   id="path278"
   style="fill:#2d353b;fill-opacity:1" />
	<path
   class="st0"
   d="M501.3,86.6l19.5-28H543l-30.8,43.9c6.4,8.1,12.6,16.2,18.5,24.5c5.9,8.2,10.7,16,14.5,23.3h-23.1   c-1.1-2.1-2.4-4.5-4.1-7.1s-3.5-5.3-5.4-8c-1.9-2.8-3.9-5.5-6-8.3c-2.1-2.7-4.1-5.3-6.1-7.7c-4.1,4.8-8.1,10-12,15.8   c-3.9,5.8-7.2,10.9-9.8,15.3h-21.6c1.7-3.5,3.9-7.2,6.4-11.1s5.2-7.9,8.1-11.9c2.9-4.1,5.9-8.1,8.9-12.2c3.1-4.1,6.1-7.9,9.1-11.6   l-31.1-44.8h23.3L501.3,86.6z"
   id="path280"
   style="fill:#2d353b;fill-opacity:1" />
	<path
   class="st0"
   d="M584.5,56.3c7,0,12.9,0.9,17.7,2.6s8.6,4.2,11.5,7.4s4.9,7,6.1,11.5c1.2,4.5,1.8,9.4,1.8,14.8v55.5   c-3.3,0.7-8.2,1.6-14.8,2.5c-6.6,1-14,1.5-22.3,1.5c-5.5,0-10.5-0.5-15.1-1.6s-8.4-2.7-11.7-5.1c-3.2-2.3-5.7-5.4-7.5-9.1   c-1.8-3.7-2.7-8.3-2.7-13.8c0-5.3,1-9.7,3.1-13.3c2-3.6,4.8-6.6,8.3-8.8c3.5-2.3,7.6-3.9,12.2-4.9s9.4-1.5,14.5-1.5   c2.3,0,4.8,0.2,7.4,0.4c2.6,0.3,5.3,0.8,8.2,1.5v-3.5c0-2.4-0.3-4.8-0.9-7s-1.6-4.2-3.1-5.9c-1.5-1.7-3.4-3-5.8-3.9   c-2.4-0.9-5.4-1.4-9-1.4c-4.9,0-9.4,0.3-13.5,1.1c-4.1,0.7-7.4,1.5-10,2.4l-2.6-17.2c2.7-0.9,6.6-1.9,11.7-2.8   C573.2,56.8,578.7,56.3,584.5,56.3z M586.3,135.3c6.5,0,11.5-0.4,14.9-1.1v-23.5c-1.2-0.3-2.9-0.7-5.1-1.1   c-2.2-0.3-4.7-0.5-7.3-0.5c-2.3,0-4.7,0.2-7.1,0.5c-2.4,0.3-4.5,1-6.5,1.9s-3.5,2.3-4.6,3.9c-1.2,1.7-1.8,3.8-1.8,6.4   c0,5,1.6,8.5,4.7,10.4S580.9,135.3,586.3,135.3z"
   id="path282"
   style="fill:#2d353b;fill-opacity:1" />
</g>
<path
   class="st1"
   d="M370.8,28.9c0,2.8,2.3,5.1,5.1,5.1h72.3c2.8,0,5.1-2.3,5.1-5.1v-9.5c0-2.8-2.3-5.1-5.1-5.1h-72.3  c-2.8,0-5.1,2.3-5.1,5.1V28.9z"
   id="path286" />
<path
   class="st1"
   d="M177.9,182c0,2.8,2.3,5.1,5.1,5.1h72.3c2.8,0,5.1-2.3,5.1-5.1v-9.6c0-2.8-2.3-5.1-5.1-5.1H183  c-2.8,0-5.1,2.3-5.1,5.1L177.9,182L177.9,182z"
   id="path288" />
</svg>
